<?xml version="1.0" encoding="utf-8"?>
<!-- Generator: Adobe Illustrator 24.0.2, SVG Export Plug-In . SVG Version: 6.00 Build 0)  -->
<svg version="1.1" id="Layer_2" xmlns="http://www.w3.org/2000/svg" xmlns:xlink="http://www.w3.org/1999/xlink" x="0px" y="0px"
	 viewBox="0 0 171.4 38" style="enable-background:new 0 0 171.4 38;" xml:space="preserve">
<style type="text/css">
	.st0{fill:#00C9DB;}
	.st1{fill:url(#SVGID_1_);}
	.st2{fill:url(#SVGID_2_);}
	.st3{fill:url(#SVGID_3_);}
	.st4{fill:url(#SVGID_4_);}
	.st5{fill:url(#SVGID_5_);}
	.st6{fill:url(#SVGID_6_);}
	.st7{fill:url(#SVGID_7_);}
	.st8{fill:url(#SVGID_8_);}
	.st9{fill:url(#SVGID_9_);}
	.st10{fill:url(#SVGID_10_);}
	.st11{fill:url(#SVGID_11_);}
	.st12{fill:url(#SVGID_12_);}
	.st13{fill:url(#SVGID_13_);}
	.st14{fill:url(#SVGID_14_);}
	.st15{fill:url(#SVGID_15_);}
	.st16{fill:url(#SVGID_16_);}
	.st17{fill:url(#SVGID_17_);}
	.st18{fill:url(#SVGID_18_);}
	.st19{fill:url(#SVGID_19_);}
	.st20{fill:url(#SVGID_20_);}
	.st21{fill:url(#SVGID_21_);}
	.st22{fill:url(#SVGID_22_);}
	.st23{fill:url(#SVGID_23_);}
	.st24{fill:url(#SVGID_24_);}
	.st25{fill:url(#SVGID_25_);}
	.st26{fill:url(#SVGID_26_);}
	.st27{fill:url(#SVGID_27_);}
	.st28{fill:url(#SVGID_28_);}
	.st29{fill:url(#SVGID_29_);}
	.st30{enable-background:new    ;}
	.st31{fill:#F1F1F8;}
</style>
<title>logo</title>
<path class="st0" d="M30.4,12.8c-0.1-0.2-0.2-0.4-0.4-0.6C25.3,4.9,18.7-0.7,15.4,0.1c-1.2,0.4-2.2,1.2-2.9,2.2
	c2.1,0.1,4.1,0.9,5.7,2.3c1.3,0.7,2.5,1.6,3.6,2.6c1.6,1.3,6.8,7.3,9.7,14.4c1.1,2.9,1.4,5.2,0.8,6.1l0,0c-0.7,1-3.2,1.7-6.7,1.8
	c-0.3,1.1-0.7,2.2-1.2,3.3c5.5,0.2,10-0.8,11.3-2.8C37.5,27.2,35,19.6,30.4,12.8z"/>
<linearGradient id="SVGID_1_" gradientUnits="userSpaceOnUse" x1="1563.4684" y1="3053.6567" x2="1556.8785" y2="3052.5566" gradientTransform="matrix(5.200000e-02 -0.999 -0.999 -5.200000e-02 3001.4441 1735.8828)">
	<stop  offset="0" style="stop-color:#F0584B"/>
	<stop  offset="1" style="stop-color:#C73F3D"/>
</linearGradient>
<path class="st1" d="M34.5,20.2c-0.3-0.6-0.6-1.3-0.9-2c-0.5,1.5-1,3-1.7,4.5c0.8,2.3,0.9,4.1,0.4,4.9l0,0c-0.1,0.2-0.3,0.4-0.5,0.5
	C33,27.5,35.5,26.3,34.5,20.2z"/>
<path class="st0" d="M30.8,8.9L30.8,8.9c0.9,1,0.8,3.8-0.1,7.3c-3.6,9.4-5.4,10.5-9.5,14.6c-2.8,2.3-5.3,3.4-6.5,3.1l0,0
	c-0.8-0.3-1.7-1.4-2.4-3.3c-1.3-0.4-2.7-0.8-4-1.3c1.3,4.5,3.1,7.9,5.2,8.5c3,1,9.4-3.1,14.7-9.2c6.7-7.9,8.3-19.8,5.8-22.5
	c-1.6-1.8-6.3-2-11.8-0.9C23.5,6.1,24.8,7,26,8C28.4,7.9,30.2,8.2,30.8,8.9z"/>
<linearGradient id="SVGID_2_" gradientUnits="userSpaceOnUse" x1="1547.054" y1="3051.5947" x2="1567.7449" y2="3051.5947" gradientTransform="matrix(5.200000e-02 -0.999 -0.999 -5.200000e-02 3001.4441 1735.8828)">
	<stop  offset="0" style="stop-color:#FCBA39"/>
	<stop  offset="1" style="stop-color:#D96D2D"/>
</linearGradient>
<path class="st2" d="M34,19.2L34,19.2C34,19.1,34,19.1,34,19.2L34,19.2z"/>
<linearGradient id="SVGID_3_" gradientUnits="userSpaceOnUse" x1="1558.6819" y1="3051.1467" x2="1558.6819" y2="3051.1467" gradientTransform="matrix(5.200000e-02 -0.999 -0.999 -5.200000e-02 3001.4441 1735.8828)">
	<stop  offset="0" style="stop-color:#FCBA39"/>
	<stop  offset="1" style="stop-color:#D96D2D"/>
</linearGradient>
<path class="st3" d="M34.4,20.1L34.4,20.1L34.4,20.1L34.4,20.1z"/>
<radialGradient id="SVGID_4_" cx="1590.2587" cy="3105.823" r="14.151" gradientTransform="matrix(5.300000e-02 -1.037 -1.029 -5.400000e-02 3128.946 1837.0731)" gradientUnits="userSpaceOnUse">
	<stop  offset="0" style="stop-color:#F9B314"/>
	<stop  offset="1" style="stop-color:#EC5222"/>
</radialGradient>
<path class="st4" d="M34.4,20.1c-0.1-0.2-0.2-0.5-0.3-0.7c0.1,0.1,0.1,0.3,0.2,0.4C34.3,19.9,34.4,20,34.4,20.1z"/>
<radialGradient id="SVGID_5_" cx="3670.2158" cy="3392.5286" r="14.157" gradientTransform="matrix(1.002 0 0 -1.002 1.144 -531.9641)" gradientUnits="userSpaceOnUse">
	<stop  offset="0" style="stop-color:#F9B314"/>
	<stop  offset="1" style="stop-color:#EC5222"/>
</radialGradient>
<path class="st5" d="M34.5,20.2c1.5,3.5,2.1,6.7,1.6,8.7l0,0C36.6,26.9,36,23.7,34.5,20.2L34.5,20.2L34.5,20.2L34.5,20.2z"/>
<radialGradient id="SVGID_6_" cx="32.5655" cy="-549.5302" r="0.352" gradientTransform="matrix(1.002 0 0 -1.002 1.144 -531.9641)" gradientUnits="userSpaceOnUse">
	<stop  offset="0" style="stop-color:#F9B314"/>
	<stop  offset="1" style="stop-color:#EC5222"/>
</radialGradient>
<path class="st6" d="M33.6,18.2c0.1,0.3,0.3,0.6,0.4,0.9C33.9,18.8,33.7,18.5,33.6,18.2z"/>
<linearGradient id="SVGID_7_" gradientUnits="userSpaceOnUse" x1="1546.8821" y1="3051.2043" x2="1567.825" y2="3051.2043" gradientTransform="matrix(5.200000e-02 -0.999 -0.999 -5.200000e-02 3001.4441 1735.8828)">
	<stop  offset="0" style="stop-color:#FCBA39"/>
	<stop  offset="1" style="stop-color:#D96D2D"/>
</linearGradient>
<path class="st7" d="M34.4,20.1L34.4,20.1c-0.1-0.1-0.1-0.2-0.1-0.3C34.3,19.9,34.4,20,34.4,20.1z"/>
<radialGradient id="SVGID_8_" cx="33.1355" cy="-550.7863" r="0.125" gradientTransform="matrix(1.002 0 0 -1.002 1.144 -531.9641)" gradientUnits="userSpaceOnUse">
	<stop  offset="0" style="stop-color:#F9B314"/>
	<stop  offset="1" style="stop-color:#EC5222"/>
</radialGradient>
<path class="st8" d="M34.4,20.1L34.4,20.1c-0.1-0.1-0.1-0.2-0.1-0.3C34.3,19.9,34.4,20,34.4,20.1z"/>
<linearGradient id="SVGID_9_" gradientUnits="userSpaceOnUse" x1="1546.8721" y1="3052.9968" x2="1567.8311" y2="3052.9968" gradientTransform="matrix(5.200000e-02 -0.999 -0.999 -5.200000e-02 3001.4441 1735.8828)">
	<stop  offset="0" style="stop-color:#FCBA39"/>
	<stop  offset="1" style="stop-color:#D96D2D"/>
</linearGradient>
<path class="st9" d="M32.1,27.8c0-0.1,0.1-0.1,0.1-0.2C32.2,27.7,32.2,27.8,32.1,27.8z"/>
<radialGradient id="SVGID_10_" cx="30.9935" cy="-558.6093" r="7.400000e-02" gradientTransform="matrix(1.002 0 0 -1.002 1.144 -531.9641)" gradientUnits="userSpaceOnUse">
	<stop  offset="0" style="stop-color:#F9B314"/>
	<stop  offset="1" style="stop-color:#EC5222"/>
</radialGradient>
<path class="st10" d="M32.1,27.8c0-0.1,0.1-0.1,0.1-0.2C32.2,27.7,32.2,27.8,32.1,27.8z"/>
<linearGradient id="SVGID_11_" gradientUnits="userSpaceOnUse" x1="1546.875" y1="3058.8188" x2="1567.8301" y2="3058.8188" gradientTransform="matrix(5.200000e-02 -0.999 -0.999 -5.200000e-02 3001.4441 1735.8828)">
	<stop  offset="0" style="stop-color:#FCBA39"/>
	<stop  offset="1" style="stop-color:#D96D2D"/>
</linearGradient>
<path class="st11" d="M34.5,20.2c1,6.1-1.4,7.3-2.7,8l0,0c-1.1,0.8-3.5,1.2-6.5,1.3c-3.1-0.2-6.1-0.8-9-1.6c0,0.5,0.1,0.9,0.2,1.4
	c0,0.2,0.1,0.3,0.1,0.5C24.9,32,33.8,31,36.2,29C36.6,26.9,36,23.7,34.5,20.2z"/>
<linearGradient id="SVGID_12_" gradientUnits="userSpaceOnUse" x1="1550.6707" y1="3053.1321" x2="1550.6707" y2="3053.1321" gradientTransform="matrix(5.200000e-02 -0.999 -0.999 -5.200000e-02 3001.4441 1735.8828)">
	<stop  offset="0" style="stop-color:#FCBA39"/>
	<stop  offset="1" style="stop-color:#D96D2D"/>
</linearGradient>
<path class="st12" d="M32,28L32,28L32,28z"/>
<radialGradient id="SVGID_13_" cx="30.7944" cy="-558.8464" r="0" gradientTransform="matrix(1.002 0 0 -1.002 1.144 -531.9641)" gradientUnits="userSpaceOnUse">
	<stop  offset="0" style="stop-color:#F9B314"/>
	<stop  offset="1" style="stop-color:#EC5222"/>
</radialGradient>
<path class="st13" d="M32,28L32,28L32,28z"/>
<linearGradient id="SVGID_14_" gradientUnits="userSpaceOnUse" x1="1546.8799" y1="3051.821" x2="1567.8269" y2="3051.821" gradientTransform="matrix(5.200000e-02 -0.999 -0.999 -5.200000e-02 3001.4441 1735.8828)">
	<stop  offset="0" style="stop-color:#FCBA39"/>
	<stop  offset="1" style="stop-color:#D96D2D"/>
</linearGradient>
<path class="st14" d="M34,19.1c-0.1-0.3-0.3-0.6-0.4-0.9C33.7,18.5,33.9,18.8,34,19.1L34,19.1z"/>
<radialGradient id="SVGID_15_" cx="32.5715" cy="-549.5413" r="0.363" gradientTransform="matrix(1.002 0 0 -1.002 1.144 -531.9641)" gradientUnits="userSpaceOnUse">
	<stop  offset="0" style="stop-color:#F9B314"/>
	<stop  offset="1" style="stop-color:#EC5222"/>
</radialGradient>
<path class="st15" d="M34,19.1c-0.1-0.3-0.3-0.6-0.4-0.9C33.7,18.5,33.9,18.8,34,19.1L34,19.1z"/>
<linearGradient id="SVGID_16_" gradientUnits="userSpaceOnUse" x1="1563.7399" y1="3051.9199" x2="1557.1859" y2="3050.8281" gradientTransform="matrix(5.200000e-02 -0.999 -0.999 -5.200000e-02 3001.4441 1735.8828)">
	<stop  offset="0" style="stop-color:#F0584B"/>
	<stop  offset="1" style="stop-color:#C73F3D"/>
</linearGradient>
<path class="st16" d="M34.5,20.2L34.5,20.2C34.5,20.2,34.4,20.1,34.5,20.2L34.5,20.2L34.5,20.2z"/>
<linearGradient id="SVGID_17_" gradientUnits="userSpaceOnUse" x1="1563.7031" y1="3052.238" x2="1557.1182" y2="3051.1409" gradientTransform="matrix(5.200000e-02 -0.999 -0.999 -5.200000e-02 3001.4441 1735.8828)">
	<stop  offset="0" style="stop-color:#F0584B"/>
	<stop  offset="1" style="stop-color:#C73F3D"/>
</linearGradient>
<path class="st17" d="M34.1,19.3L34.1,19.3C34,19.2,34.1,19.2,34.1,19.3L34.1,19.3z"/>
<linearGradient id="SVGID_18_" gradientUnits="userSpaceOnUse" x1="1563.1644" y1="3055.4263" x2="1556.5795" y2="3054.3293" gradientTransform="matrix(5.200000e-02 -0.999 -0.999 -5.200000e-02 3001.4441 1735.8828)">
	<stop  offset="0" style="stop-color:#F0584B"/>
	<stop  offset="1" style="stop-color:#C73F3D"/>
</linearGradient>
<path class="st18" d="M31.7,28.2c0.1-0.1,0.2-0.1,0.2-0.2C31.9,28.1,31.8,28.1,31.7,28.2z"/>
<linearGradient id="SVGID_19_" gradientUnits="userSpaceOnUse" x1="1550.7756" y1="3053.0376" x2="1550.7756" y2="3053.0376" gradientTransform="matrix(5.200000e-02 -0.999 -0.999 -5.200000e-02 3001.4441 1735.8828)">
	<stop  offset="0" style="stop-color:#F0584B"/>
	<stop  offset="1" style="stop-color:#C73F3D"/>
</linearGradient>
<path class="st19" d="M32.1,27.9L32.1,27.9L32.1,27.9z"/>
<linearGradient id="SVGID_20_" gradientUnits="userSpaceOnUse" x1="1546.864" y1="3051.543" x2="1567.835" y2="3051.543" gradientTransform="matrix(5.200000e-02 -0.999 -0.999 -5.200000e-02 3001.4441 1735.8828)">
	<stop  offset="0" style="stop-color:#FCBA39"/>
	<stop  offset="1" style="stop-color:#D96D2D"/>
</linearGradient>
<path class="st20" d="M34.1,19.3C34,19.2,34,19.2,34.1,19.3L34,19.1C34,19.2,34,19.2,34.1,19.3z"/>
<linearGradient id="SVGID_21_" gradientUnits="userSpaceOnUse" x1="1563.7006" y1="3052.2351" x2="1557.1227" y2="3051.1392" gradientTransform="matrix(5.200000e-02 -0.999 -0.999 -5.200000e-02 3001.4441 1735.8828)">
	<stop  offset="0" style="stop-color:#F0584B"/>
	<stop  offset="1" style="stop-color:#C73F3D"/>
</linearGradient>
<path class="st21" d="M34.1,19.3C34,19.2,34,19.2,34.1,19.3L34,19.1C34,19.2,34,19.2,34.1,19.3z"/>
<linearGradient id="SVGID_22_" gradientUnits="userSpaceOnUse" x1="1558.6819" y1="3051.1467" x2="1558.6819" y2="3051.1467" gradientTransform="matrix(5.200000e-02 -0.999 -0.999 -5.200000e-02 3001.4441 1735.8828)">
	<stop  offset="0" style="stop-color:#FCBA39"/>
	<stop  offset="1" style="stop-color:#D96D2D"/>
</linearGradient>
<path class="st22" d="M34.4,20.1L34.4,20.1z"/>
<linearGradient id="SVGID_23_" gradientUnits="userSpaceOnUse" x1="1558.6819" y1="3051.1467" x2="1558.6819" y2="3051.1467" gradientTransform="matrix(5.200000e-02 -0.999 -0.999 -5.200000e-02 3001.4441 1735.8828)">
	<stop  offset="0" style="stop-color:#F0584B"/>
	<stop  offset="1" style="stop-color:#C73F3D"/>
</linearGradient>
<path class="st23" d="M34.4,20.1L34.4,20.1z"/>
<radialGradient id="SVGID_24_" cx="32.9535" cy="-550.3712" r="0.191" gradientTransform="matrix(1.002 0 0 -1.002 1.144 -531.9641)" gradientUnits="userSpaceOnUse">
	<stop  offset="0" style="stop-color:#F9B314"/>
	<stop  offset="1" style="stop-color:#EC5222"/>
</radialGradient>
<path class="st24" d="M34.3,19.8c-0.1-0.1-0.1-0.3-0.2-0.4v-0.1C34.1,19.4,34.2,19.6,34.3,19.8z"/>
<linearGradient id="SVGID_25_" gradientUnits="userSpaceOnUse" x1="1563.7205" y1="3052.1304" x2="1557.1365" y2="3051.0334" gradientTransform="matrix(5.200000e-02 -0.999 -0.999 -5.200000e-02 3001.4441 1735.8828)">
	<stop  offset="0" style="stop-color:#F0584B"/>
	<stop  offset="1" style="stop-color:#C73F3D"/>
</linearGradient>
<path class="st25" d="M34.3,19.8c-0.1-0.1-0.1-0.3-0.2-0.4v-0.1C34.1,19.4,34.2,19.6,34.3,19.8z"/>
<radialGradient id="SVGID_26_" cx="33.2315" cy="-551.0042" r="3.400000e-02" gradientTransform="matrix(1.002 0 0 -1.002 1.144 -531.9641)" gradientUnits="userSpaceOnUse">
	<stop  offset="0" style="stop-color:#F9B314"/>
	<stop  offset="1" style="stop-color:#EC5222"/>
</radialGradient>
<path class="st26" d="M34.5,20.2L34.5,20.2L34.5,20.2C34.4,20.1,34.5,20.2,34.5,20.2z"/>
<linearGradient id="SVGID_27_" gradientUnits="userSpaceOnUse" x1="1563.7335" y1="3051.9187" x2="1557.1896" y2="3050.8286" gradientTransform="matrix(5.200000e-02 -0.999 -0.999 -5.200000e-02 3001.4441 1735.8828)">
	<stop  offset="0" style="stop-color:#F0584B"/>
	<stop  offset="1" style="stop-color:#C73F3D"/>
</linearGradient>
<path class="st27" d="M34.5,20.2L34.5,20.2L34.5,20.2C34.4,20.1,34.5,20.2,34.5,20.2z"/>
<linearGradient id="SVGID_28_" gradientUnits="userSpaceOnUse" x1="1546.8721" y1="3052.0322" x2="1567.8301" y2="3052.0322" gradientTransform="matrix(5.200000e-02 -0.999 -0.999 -5.200000e-02 3001.4441 1735.8828)">
	<stop  offset="0" style="stop-color:#FCBA39"/>
	<stop  offset="1" style="stop-color:#D96D2D"/>
</linearGradient>
<path class="st28" d="M34.5,20.2C34.5,20.2,34.4,20.1,34.5,20.2v-0.1c0-0.1-0.1-0.2-0.1-0.3c-0.1-0.2-0.1-0.3-0.2-0.5
	c0,0,0-0.1-0.1-0.1c-0.1-0.3-0.3-0.6-0.4-0.9c-0.5,1.5-1,3-1.7,4.5c0.8,2.3,0.9,4.1,0.4,4.9l0,0c0,0.1-0.1,0.1-0.1,0.2
	c0,0,0,0-0.1,0.1S32,28,32,28c-0.1,0.1-0.2,0.1-0.2,0.2l0,0C33,27.5,35.5,26.3,34.5,20.2z"/>
<radialGradient id="SVGID_29_" cx="3670.2146" cy="3392.5337" r="14.161" gradientTransform="matrix(1.002 0 0 -1.002 1.144 -531.9641)" gradientUnits="userSpaceOnUse">
	<stop  offset="0" style="stop-color:#F9B314"/>
	<stop  offset="1" style="stop-color:#EC5222"/>
</radialGradient>
<path class="st29" d="M34.5,20.2C34.5,20.2,34.4,20.1,34.5,20.2v-0.1c0-0.1-0.1-0.2-0.1-0.3c-0.1-0.2-0.1-0.3-0.2-0.5
	c0,0,0-0.1-0.1-0.1c-0.1-0.3-0.3-0.6-0.4-0.9c-0.5,1.5-1,3-1.7,4.5c0.8,2.3,0.9,4.1,0.4,4.9l0,0c0,0.1-0.1,0.1-0.1,0.2
	c0,0,0,0-0.1,0.1S32,28,32,28c-0.1,0.1-0.2,0.1-0.2,0.2l0,0C33,27.5,35.5,26.3,34.5,20.2z"/>
<path class="st0" d="M34.1,19.3L34.1,19.3c0,0,0-0.1-0.1-0.1l0,0c-0.1-0.3-0.3-0.6-0.4-0.9c-0.5,1.5-1,3-1.7,4.5
	c0.8,2.3,0.9,4.1,0.4,4.9l0,0c0,0.1-0.1,0.1-0.1,0.2c0,0,0,0-0.1,0.1S32,28,32,28l0,0c-0.1,0.1-0.2,0.1-0.2,0.2l0,0
	c-0.1,0-0.1,0.1-0.2,0.1h-0.1c-0.1,0-0.1,0.1-0.2,0.1h-0.1c-0.1,0-0.1,0.1-0.2,0.1h-0.1c-0.1,0-0.2,0.1-0.2,0.1l0,0
	c-0.2,0.1-0.3,0.1-0.5,0.2c-0.1,0-0.1,0-0.2,0h-0.2L29.5,29h-0.2L29,29.1h-0.2c-0.1,0-0.3,0-0.4,0.1h-0.1c-0.8,0.1-1.6,0.2-2.4,0.2
	l0,0c-0.2,0-0.4,0-0.7,0c0.4-0.5,0.8-1,1.2-1.5c3.8-5.3,6.2-11.5,6.8-18c0.5,0.2,1,0.3,1.5,0.5c0-1.9-0.3-3.5-1.1-4.3
	c-1.2-1.3-4-1.8-7.6-1.5h-0.1c-0.2,0-0.4,0-0.6,0.1h-0.2c-0.2,0-0.4,0-0.6,0.1h-0.1c-0.3,0-0.5,0.1-0.8,0.1h-0.2
	C23.2,4.9,23,5,22.9,5l-0.3,0.1l-0.5,0.1h-0.2l0,0c-2,0.4-4,1-6,1.7C15.7,7,15.5,7,15.2,7.1c-6,2-11.6,5.4-14,8.4l0,0
	c-0.4,0.5-0.8,1.1-1,1.7l0,0c0,0.1-0.1,0.3-0.1,0.4l0,0C0,17.9,0,18,0,18.2c-0.1,1.8,1.6,4.1,4.3,6.5c-0.1-0.4-0.1-0.7-0.1-1.1
	c2.7,2,5.6,3.6,8.7,4.9c1.2,0.5,2.3,0.9,3.6,1.2l0,0c0.2,0,0.3,0.1,0.5,0.1h0.2c-0.2-0.1-0.4-0.1-0.6-0.2c0.2,0.7,0.5,1.5,0.9,2.1
	c0.6,0.2,1.3,0.3,1.9,0.4c-2,1.3-3.7,2-4.6,1.7l0,0c-0.8-0.3-1.7-1.4-2.4-3.3c-1.2-0.3-2.3-0.7-3.4-1.1l-0.5-0.2
	c1.2,4.5,3.1,7.8,5.1,8.5c1.9,0.6,5.4-1.6,9-5.1c6.4,0.6,12.1-0.7,13.3-2.8c0.2-0.3,0.3-0.7,0.4-1C36,29,35.9,29,35.8,29.1
	c0.1-0.1,0.2-0.1,0.3-0.2l0,0l0,0C36.7,26.7,35.8,23.2,34.1,19.3z M35,29.6c0.1-0.1,0.2-0.1,0.3-0.2c-0.3,0.1-0.6,0.3-0.9,0.4
	c0.1,0,0.2-0.1,0.3-0.1C34.9,29.6,34.9,29.6,35,29.6z M33.7,30l0.2-0.1c0.1,0,0.2-0.1,0.4-0.1c-0.3,0.1-0.7,0.2-1.1,0.3
	C33.3,30.1,33.5,30.1,33.7,30L33.7,30L33.7,30z M33,30.2L33,30.2c-0.1,0-0.3,0.1-0.5,0.1l0,0C32.7,30.3,32.8,30.3,33,30.2L33,30.2
	L33,30.2z M32.3,30.4c-0.5,0.1-1,0.2-1.5,0.3h0.1C31.4,30.6,31.9,30.5,32.3,30.4L32.3,30.4L32.3,30.4z M30,30.8
	c0.3,0,0.5-0.1,0.8-0.1C30.5,30.7,30.2,30.7,30,30.8L30,30.8z M29.9,30.8c-0.6,0.1-1.2,0.1-1.8,0.1C28.8,30.9,29.4,30.8,29.9,30.8
	L29.9,30.8z M8.7,24c-1.5-1-2.8-2.3-3.8-3.7c-0.1-0.1-0.1-0.2-0.2-0.2c0,0,0,0,0-0.1c-0.1-0.2-0.2-0.4-0.3-0.6c0,0,0-0.1-0.1-0.1
	s0-0.1,0-0.1v-0.1V19c0-0.1,0-0.1,0-0.2v-0.1c0-0.1,0-0.1,0-0.2l0,0c0-0.1,0-0.1,0-0.2c0,0,0,0,0-0.1v-0.1c0,0,0,0,0-0.1
	s0.1-0.1,0.1-0.2c0,0,0,0,0-0.1s0.1-0.1,0.1-0.2l0.1-0.1l0.1-0.1c0,0,0-0.1,0.1-0.1S4.7,17,4.7,17s0.1-0.1,0.2-0.2L5,16.7
	c0-0.1,0.1-0.1,0.1-0.2l0.1-0.1c0.2-0.2,0.4-0.4,0.6-0.6l0,0c0.1,0,0.2-0.1,0.2-0.2l0,0c0.2-0.1,0.4-0.3,0.5-0.5l0,0
	c0.6-0.5,1.2-0.9,1.8-1.3c5.2-2.5,10.7-4.5,16.3-5.7c0.6,0,1-0.1,1.4-0.1l0,0c0.8-0.1,1.6,0,2.4,0l0,0c0.1,0,0.2,0,0.3,0l0,0
	c0.3,0,0.6,0.1,0.9,0.2l0,0c0.1,0,0.1,0,0.2,0.1h0.1L30,8.4c0,0,0.1,0,0.1,0.1s0.1,0,0.1,0.1s0.1,0,0.1,0.1s0.1,0,0.1,0.1
	s0.1,0.1,0.1,0.1s0,0,0.1,0S30.7,9,30.7,9l0,0C30.9,9,31,9,31,9.1l0,0c0,0.1,0.1,0.2,0.1,0.3c0.5,1.2,0.4,3.8-0.4,6.8
	c-3,8-4.8,10-7.8,13C15,28.2,13.3,26.7,8.7,24z M21.4,30.7c-1-0.1-2.1-0.3-3.1-0.5c0.3,0.1,0.6,0.1,0.9,0.2h0.1
	C20,30.5,20.7,30.6,21.4,30.7L21.4,30.7L21.4,30.7z M17.2,29.9c0.3,0.1,0.7,0.2,1,0.2h0.1C17.9,30,17.6,30,17.2,29.9L17.2,29.9
	L17.2,29.9z M24.1,30.9L24.1,30.9c0.7,0,1.4,0.1,2,0.1l0,0c0.7,0,1.3,0,1.9,0C26.8,31,25.4,31,24.1,30.9L24.1,30.9L24.1,30.9z
	 M35.4,29.4L35.4,29.4c0.2-0.1,0.2-0.1,0.3-0.2l0,0C35.6,29.2,35.5,29.3,35.4,29.4L35.4,29.4L35.4,29.4z"/>
<path class="st0" d="M33.6,18.2c-0.5,1.5-1,3-1.7,4.5c0.8,2.3,0.9,4.1,0.4,4.9l0,0c-0.7,1-3.4,1.7-7,1.8c-7.7-0.8-10.4-1.9-13.5-3.7
	c-0.7-0.4-1.5-0.9-2.3-1.4L8.7,24c-1.2-0.9-2.4-1.9-3.4-3l0,0c-0.7-0.7-1.1-1.6-1.3-2.5l0,0c0-0.8,1-2,2.5-3.2
	c0-1.4,0.1-2.8,0.3-4.2c-4,2.4-6.8,5.1-6.9,7.2c-0.2,2.6,3.6,6.6,8.9,9.9l0,0c0.3,0.2,0.5,0.3,0.8,0.5l0.1,0.1
	c0.3,0.2,0.6,0.3,0.9,0.5l0,0c0.3,0.1,0.5,0.3,0.8,0.4l0.2,0.1c0.3,0.1,0.6,0.3,0.9,0.4h0.1l0,0c9.3,4.4,21.1,2.7,23-0.2
	C37,27.9,36,23.2,33.6,18.2z"/>
<path class="st0" d="M14.7,33.9L14.7,33.9c-1.2-0.4-2.6-2.9-3.6-6.4c-1.6-10-0.6-11.8,1-17.5c1.3-3.4,2.9-5.7,4.1-5.9l0,0
	c0.8-0.2,2.2,0.4,3.7,1.6c1.4-0.4,2.7-0.6,4.1-0.8c-3.3-3.3-6.6-5.2-8.7-4.8c-3.1,0.6-6.6,7.5-8.2,15.4c-1.8,10.2,2.7,21.4,6.2,22.4
	c2.3,0.7,6.5-1.4,10.7-5.1c-1.6-0.1-3.2-0.2-4.8-0.5C17.3,33.6,15.6,34.2,14.7,33.9z"/>
<path class="st0" d="M15.5,0.1C12.8,0.7,10,7.5,8.9,15.3C7.6,25.2,11.6,36,14.5,38c2.4,0,6-2.1,9.5-5.3c-1.6-0.1-3.2-0.2-4.8-0.5
	c-2,1.3-3.7,2-4.6,1.7l0,0c-1.2-0.4-2.6-2.9-3.5-6.4c-1.6-10-0.6-11.8,1-17.5c1.3-3.4,2.9-5.7,4.1-5.9l0,0c0.8-0.2,2.2,0.4,3.7,1.6
	c1.2-0.3,2.4-0.6,3.5-0.7L24,4.9C20.8,1.6,17.5-0.4,15.5,0.1z"/>
<path class="st0" d="M22.4,34.1c0.5-0.4,1.1-0.9,1.6-1.4c-1.6-0.1-3.2-0.2-4.8-0.5c-2,1.3-3.7,2-4.6,1.7l0,0
	c-0.2-0.1-0.4-0.2-0.6-0.4C15,34.6,16.8,36.7,22.4,34.1z"/>
<path class="st0" d="M24.1,4.8L24.1,4.8c-1.7-1.4-4-1.9-6.1-1.3c-0.7,0.1-1.3,0.4-1.9,0.7h0.1l0,0C17,4,18.4,4.6,19.9,5.8
	c1.2-0.3,2.4-0.6,3.5-0.7L24.1,4.8z"/>
<g class="st30">
	<path class="st31" d="M50.3,32V4.6h5.5L62.2,24c0.6,1.8,1,3.2,1.3,4.1c0.3-1,0.8-2.5,1.5-4.4l6.6-19.1h4.9V32h-3.5V9L65,32h-3.3
		L53.8,8.7V32H50.3z"/>
	<path class="st31" d="M80.6,22c0-3.7,1-6.4,3.1-8.2c1.7-1.5,3.8-2.2,6.2-2.2c2.7,0,5,0.9,6.7,2.7s2.6,4.3,2.6,7.4
		c0,2.6-0.4,4.6-1.1,6c-0.8,1.5-1.9,2.6-3.3,3.4c-1.5,0.8-3.1,1.2-4.8,1.2c-2.8,0-5-0.9-6.7-2.7C81.4,28,80.6,25.4,80.6,22z M84,22
		c0,2.5,0.6,4.4,1.7,5.7c1.1,1.3,2.5,1.9,4.2,1.9c1.7,0,3.1-0.6,4.2-1.9s1.7-3.2,1.7-5.8c0-2.5-0.6-4.3-1.7-5.6
		c-1.1-1.3-2.5-1.9-4.2-1.9c-1.7,0-3.1,0.6-4.2,1.9S84,19.5,84,22z"/>
	<path class="st31" d="M106.2,32h-3.1V4.6h3.4v9.8c1.4-1.8,3.2-2.7,5.4-2.7c1.2,0,2.4,0.2,3.5,0.7c1.1,0.5,2,1.2,2.7,2.1
		c0.7,0.9,1.3,2,1.7,3.2c0.4,1.3,0.6,2.6,0.6,4c0,3.4-0.8,6-2.5,7.9c-1.7,1.9-3.7,2.8-6.1,2.8c-2.3,0-4.2-1-5.5-2.9V32z M106.2,21.9
		c0,2.4,0.3,4.1,1,5.2c1.1,1.7,2.5,2.6,4.3,2.6c1.5,0,2.7-0.6,3.8-1.9c1.1-1.3,1.6-3.2,1.6-5.7c0-2.6-0.5-4.5-1.5-5.7
		c-1-1.2-2.3-1.8-3.7-1.8c-1.5,0-2.7,0.6-3.8,1.9C106.7,17.6,106.2,19.5,106.2,21.9z"/>
	<path class="st31" d="M124.4,8.4V4.6h3.4v3.9H124.4z M124.4,32V12.1h3.4V32H124.4z"/>
	<path class="st31" d="M132.9,32V4.6h3.4v15.6l8-8.1h4.4l-7.6,7.4l8.4,12.5h-4.1l-6.6-10.1l-2.4,2.3V32H132.9z"/>
	<path class="st31" d="M165.6,25.6l3.5,0.4c-0.5,2-1.6,3.6-3,4.7c-1.5,1.1-3.4,1.7-5.7,1.7c-2.9,0-5.2-0.9-6.9-2.7
		c-1.7-1.8-2.6-4.3-2.6-7.5c0-3.3,0.9-5.9,2.6-7.8c1.7-1.8,3.9-2.8,6.7-2.8c2.7,0,4.8,0.9,6.5,2.7c1.7,1.8,2.5,4.3,2.5,7.6
		c0,0.2,0,0.5,0,0.9h-14.8c0.1,2.2,0.7,3.8,1.8,5s2.5,1.7,4.1,1.7c1.2,0,2.3-0.3,3.2-1C164.4,28,165.1,27,165.6,25.6z M154.6,20.1
		h11.1c-0.1-1.7-0.6-2.9-1.3-3.8c-1.1-1.3-2.5-1.9-4.2-1.9c-1.5,0-2.8,0.5-3.9,1.5C155.3,17,154.7,18.4,154.6,20.1z"/>
</g>
</svg>
